<?xml version="1.0" encoding="utf-8"?>
<!-- Generator: Adobe Illustrator 15.0.0, SVG Export Plug-In . SVG Version: 6.00 Build 0)  -->
<!DOCTYPE svg PUBLIC "-//W3C//DTD SVG 1.1//EN" "http://www.w3.org/Graphics/SVG/1.1/DTD/svg11.dtd">
<svg version="1.1" id="Layer_1" xmlns="http://www.w3.org/2000/svg" xmlns:xlink="http://www.w3.org/1999/xlink" x="0px" y="0px"
	 width="54.546px" height="56.92px" viewBox="0 0 54.546 56.92" enable-background="new 0 0 54.546 56.92" xml:space="preserve">
<path d="M36.888,5.978c0,0-3.842,0.104-8.098,7.363c0,0-2.234,3.219-5.223,1.202c0,0-0.971-0.735-1.457-2.991
	c0,0-0.64-7.343-5.965-9.526c0,0-5.896-2.82-12.274,2.342c0,0-6.37,6.135-0.73,15.089c0,0,3.395,4.601,9.124,1.781
	c0,0-5.57-0.729-5.729-4.117c0,0,1.693,2.422,5.406,1.457c0,0-3.713-1.214-2.179-4.523c0,0,0.967-1.937,3.717-0.969
	c0,0,2.742,0.916,0.641,5.868c0,0-2.661,4.382,0.082,6.164c0,0-0.404-2.589,1.367-1.863c0,0,4.366,7.021,11.147,6.537l0.078,5.734
	c0,0-0.24-0.728-2.256-0.728c0,0,2.828,1.29,1.853,2.263c0,0-1.049,1.369-1.616,1.771c0,0,1.212,0.245,2.824-0.89
	c0,0,3.88,2.26,4.359,2.588c0,0-1.278-2.312-3.715-3.959v-6.455c0,0,0.086,0.727,1.459,1.293c0,0-1.052-2.262,0.16-2.262
	c0,0,1.615-0.237,1.289,1.449c0,0-0.164,0.728-0.809,1.861c0,0,4.363-1.779,1.457-4.603c0,0,6.455-2.014,7.988-7.751
	c0,0,1.672-4.97-0.808-9.521c0,0,1.535,1.699,3.067,1.286c0,0,1.982-0.453,0.843-2.942c0,0-0.621-1.188,0.354-1.62
	c0,0,1.244-0.677,2.358,0.316c0,0,0.604-1.961-2.853-2.007c0,0,1.354-0.8,0.627-1.551c0,0-2.307-1.473-1.836-3.158
	c0,0-0.438-0.033-0.539,0.451c0,0,0.127,0.415-0.801,0.317c0,0-0.863-0.098-0.844-1.067c0,0-0.676,0.75-1.135,0.75
	c0,0-0.383-0.889,0.078-1.356c0,0-1.139,0.44-1.594,1.287c0,0-0.535-0.582-0.662-1.287c0,0-1.519,0.661-0.115,3.289
	c0,0,0.631,1.163,1.381,1.453c0,0,0.408,0.196,0.26,0.626C37.576,5.368,37.443,5.874,36.888,5.978z"/>
<g>
	<path fill="#231F20" d="M2.644,45.577c0,0-0.334,0.146-0.355,0.799c0.021,0.654,0.355,0.793,0.355,0.793h1.75L0,51.327h12.205
		l0.028-0.029l4.619-3.949h25.825c1,1.75-0.396,2.105-0.396,2.105c-0.936,0.398-1.289-0.156-1.289-0.156
		c-0.232-0.678,0.771-0.465,0.771-0.465c-0.207-0.449-0.83-0.236-0.83-0.236c-0.613,0.367-0.231,0.93-0.231,0.93
		c0.573,0.701,1.754,0.273,1.754,0.273l12.094-3.424l-12.094-3.428c0,0-1.181-0.424-1.754,0.277c0,0-0.382,0.563,0.231,0.928
		c0,0,0.623,0.212,0.83-0.233c0,0-1.003,0.204-0.771-0.473c0,0,0.354-0.548,1.289-0.147c0,0,1.396,0.352,0.396,2.102H16.853
		l-4.619-3.952l-0.028-0.025H0l4.395,4.154L2.644,45.577L2.644,45.577z M52.31,46.573l-8.863,2.379c0,0,0.238-1.205-0.514-2.379
		H52.31z M0.849,51.021l4.835-3.607l-4.251,3.607H0.849z M1.856,51.021l4.832-3.607L2.44,51.021H1.856z M2.865,51.021l4.831-3.607
		l-4.248,3.607H2.865z M3.868,51.021L8.7,47.413l-4.248,3.607H3.868z M4.872,51.021l4.835-3.607l-4.248,3.607H4.872z M5.88,51.021
		l4.831-3.607l-4.247,3.607H5.88z M6.888,51.021l4.831-3.607l-4.248,3.607H6.888z M7.896,51.021l4.827-3.607l-4.244,3.607H7.896z
		 M8.899,51.021l4.832-3.607l-4.244,3.607H8.899z M9.907,51.021l4.832-3.607l-4.248,3.607H9.907z M11.495,51.021h-0.579l4.831-3.607
		L11.495,51.021z M42.3,46.394v0.366H2.865v-0.366H42.3z"/>
	<line fill="#231F20" x1="1.856" y1="51.021" x2="2.44" y2="51.021"/>
	<path fill="#231F20" d="M6.688,47.413"/>
</g>
<line fill="#F3EB39" stroke="#000000" stroke-width="2" x1="28.194" y1="56.92" x2="28.194" y2="38.053"/>
</svg>
