<?xml version="1.0" encoding="utf-8"?>
<!-- Generator: Adobe Illustrator 14.0.0, SVG Export Plug-In . SVG Version: 6.00 Build 43363)  -->
<!DOCTYPE svg PUBLIC "-//W3C//DTD SVG 1.1//EN" "http://www.w3.org/Graphics/SVG/1.1/DTD/svg11.dtd">
<svg version="1.1" id="Layer_1" xmlns="http://www.w3.org/2000/svg" xmlns:xlink="http://www.w3.org/1999/xlink" x="0px" y="0px"
	 width="500px" height="500px" viewBox="0 0 500 500" enable-background="new 0 0 500 500" xml:space="preserve">
<path fill="#FCE2B4" d="M175.029,244.363c0,0,35.841-8.723,37.056,0c1.214,8.723-1.563,40.723-7.143,49.723
	s-22.784-12.176-22.784-12.176L175.029,244.363"/>
<path fill="#FFFFFF" d="M170.408,238.78c0,0,6,19.935,6.5,28.935s-28.091,15.177-27.546,4.838
	c0.545-10.338,20.545,168.162-89.955,171.162s173.733-3.129,173.733-3.129s-31.732-107.871-25.232-122.371
	s16.422-25.186,10.232-36.5c-3.146-5.75-12-12-12-12l-2-30.935h-4.232c0,0,5.027,30.745-4,25.759c-10.262-5.668-21-25.759-21-25.759
	H170.408z"/>
<path fill="#FCE2B4" d="M170.75,240.602c0,0-2.811-1.885-12.811-1.451s-16.679,83.081,13.069,90.935s55.748-36.691,55.748-36.691
	l-8.747-7.809c0,0-41.57,37.171-43.57,28.086C172.439,304.586,186.561,246.118,170.75,240.602z"/>
<ellipse transform="matrix(0.9548 0.2973 -0.2973 0.9548 59.957 -48.6077)" fill="#FCE2B4" cx="189.757" cy="172.781" rx="62.176" ry="73.216"/>
<path fill="#FFFFFF" d="M202.222,213.086c0,0,0,0,15.671,0c21.584,0-3.037,16-3.037,16S198.504,231.086,202.222,213.086z"/>
<path fill="#FFF4E3" d="M225.393,181.125c0,0,1.652,5.223,3.929,8.178c3.726,2.387,4.051,8.073-0.443,8.511
	c-5.434,0.405-8.49-0.343-8.49-0.343s-3.133-0.386-0.557-7.22"/>
<path fill="#FFFFFF" d="M217.943,170.724c-0.6-5.08-5.043-9.198-9.929-9.198c-4.884,0-8.358,4.118-7.761,9.198
	s5.043,9.198,9.927,9.198C215.065,179.922,218.541,175.804,217.943,170.724z"/>
<path fill="#A6C1E2" d="M216.404,173.724c-0.344-2.931-3-5.307-5.93-5.307c-2.932,0-5.027,2.376-4.684,5.307
	c0.346,2.931,3.002,5.307,5.932,5.307C214.654,179.031,216.75,176.655,216.404,173.724z"/>
<path d="M213.764,173.184c0.473,1.438-0.338,2.846-1.811,3.144c-1.473,0.299-3.049-0.625-3.522-2.063
	c-0.473-1.438,0.341-2.845,1.813-3.144C211.716,170.823,213.293,171.746,213.764,173.184z"/>
<path fill="#FFFFFF" d="M245.43,170.724c-0.598-5.08-5.044-9.198-9.928-9.198c-4.885,0-8.359,4.118-7.762,9.198
	s5.042,9.198,9.928,9.198C242.552,179.922,246.027,175.804,245.43,170.724z"/>
<path fill="#A6C1E2" d="M243.891,173.724c-0.344-2.931-3-5.307-5.932-5.307c-2.93,0-5.025,2.376-4.682,5.307
	c0.346,2.931,3,5.307,5.932,5.307S244.236,176.655,243.891,173.724z"/>
<path d="M241.307,173.724c0.176,1.503-0.898,2.722-2.401,2.722s-2.864-1.219-3.042-2.722s0.897-2.721,2.4-2.721
	S241.129,172.221,241.307,173.724z"/>
<path fill="#D8BE98" d="M200.357,167.082c0,0,4.024-14.074,17.844-2.205C222.73,168.766,200.357,167.082,200.357,167.082z"/>
<path fill="none" stroke="#602F1B" d="M200.936,167.373c0,0-5.102-1.769-4.727-0.671"/>
<path fill="none" stroke="#602F1B" d="M203.746,167.441c0,0-3.922-1.875-3.625-0.77"/>
<path fill="none" stroke="#602F1B" d="M217.485,166.259c0,0,4.936-2.669,4.644-1.512"/>
<path fill="none" stroke="#602F1B" d="M206.604,167.436c0,0-4.045-2.496-3.729-1.071"/>
<path fill="none" stroke="#602F1B" d="M215.453,166.953c0,0,4.258-3.659,4.029-1.973"/>
<path fill="none" stroke="#602F1B" d="M212.985,167.27c0,0,4.45-3.847,4.212-2.073"/>
<path fill="none" stroke="#602F1B" d="M211.498,167.225c0,0,0.903-3.286,0.896-1.657"/>
<path fill="none" stroke="#602F1B" d="M208.348,167.497c0,0,1.399-3.297,1.359-1.681"/>
<path fill="#D8BE98" d="M227.405,166.781c0,0,4.024-14.074,17.844-2.205C249.779,168.465,227.405,166.781,227.405,166.781z"/>
<path fill="none" stroke="#602F1B" d="M227.871,166.414c0,0-5.102-1.768-4.727-0.671"/>
<path fill="none" stroke="#602F1B" d="M230.682,166.482c0,0-3.922-1.874-3.625-0.77"/>
<path fill="none" stroke="#602F1B" d="M244.421,165.3c0,0,4.935-2.669,4.644-1.512"/>
<path fill="none" stroke="#602F1B" d="M233.539,166.477c0,0-4.045-2.496-3.729-1.071"/>
<path fill="none" stroke="#602F1B" d="M242.389,165.994c0,0,4.258-3.659,4.029-1.973"/>
<path fill="none" stroke="#602F1B" d="M239.921,166.31c0,0,4.45-3.847,4.212-2.073"/>
<path fill="none" stroke="#602F1B" d="M238.434,166.266c0,0,0.902-3.287,0.896-1.657"/>
<path fill="none" stroke="#602F1B" d="M235.283,166.539c0,0,1.398-3.297,1.359-1.682"/>
<polygon fill="none" stroke="#CC1D42" stroke-width="4" points="230.704,180.09 256.96,179.068 257.138,165.78 230.88,166.801 "/>
<polygon fill="none" stroke="#CC1D42" stroke-width="4" points="194.948,181.529 221.205,180.507 221.383,167.219 195.124,168.24 
	"/>
<line fill="none" stroke="#CC1D42" stroke-width="4" x1="221.383" y1="168.219" x2="230.88" y2="167.849"/>
<line fill="none" stroke="#CC1D42" stroke-width="4" x1="195.124" y1="169.24" x2="146.894" y2="180.031"/>
<path fill="#602F1B" d="M172.03,176.086c0,0-4.628-38.553,43.709-23.553c30.924-10.911,56.564,0.553,35.995-15.447
	c-20.647-16.061-3.654-27-53.527-40c-51.619-13.455,11.361-24-26.177-23c-73.622,1.961-23.14,39-20.055,38
	c3.085-1-52.479,39-31.91,82c20.569,43,16.483-27,28.825-15c12.341,12,12.341,12,12.341,12L172.03,176.086z"/>
<ellipse transform="matrix(0.8656 0.5007 -0.5007 0.8656 129.864 -139.1251)" fill="#FCE2B4" cx="324.128" cy="172.38" rx="62.218" ry="88.562"/>
<path fill="#FFFFFF" d="M298.059,170.899c1.036-4.792,5.868-7.733,10.798-6.57c4.927,1.162,8.08,5.989,7.045,10.781
	c-1.034,4.792-5.87,7.734-10.796,6.571C300.178,180.518,297.022,175.691,298.059,170.899z"/>
<path fill="#A6C1E2" d="M299.355,174.179c0.596-2.765,3.478-4.439,6.433-3.742c2.958,0.698,4.868,3.505,4.274,6.269
	c-0.6,2.764-3.481,4.439-6.437,3.742C300.669,179.75,298.757,176.943,299.355,174.179z"/>
<path d="M302.065,174.283c-0.6,1.284,0.099,2.844,1.559,3.484c1.46,0.641,3.129,0.119,3.729-1.165
	c0.599-1.284-0.102-2.844-1.562-3.485C304.332,172.478,302.662,172.999,302.065,174.283z"/>
<path fill="#FFFFFF" d="M270.331,164.355c1.036-4.792,5.871-7.733,10.797-6.57c4.928,1.163,8.082,5.99,7.048,10.781
	c-1.035,4.792-5.869,7.734-10.799,6.57C272.452,173.975,269.296,169.147,270.331,164.355z"/>
<path fill="#A6C1E2" d="M271.628,167.636c0.597-2.765,3.479-4.439,6.436-3.742c2.956,0.698,4.867,3.504,4.271,6.269
	c-0.599,2.764-3.479,4.439-6.436,3.742S271.03,170.4,271.628,167.636z"/>
<path d="M274.235,168.251c-0.306,1.418,0.674,2.857,2.19,3.215c1.517,0.357,2.994-0.502,3.3-1.919
	c0.308-1.417-0.673-2.856-2.189-3.214S274.543,166.833,274.235,168.251z"/>
<path fill="#D8BE98" d="M316.107,171.548c0,0-2.862-14.628-17.813-6.39C293.396,167.858,316.107,171.548,316.107,171.548z"/>
<path fill="none" stroke="#602F1B" d="M315.5,171.694c0,0,5.296-0.503,4.824,0.473"/>
<path fill="none" stroke="#602F1B" d="M312.658,171.09c0,0,4.116-0.887,3.724,0.116"/>
<path fill="none" stroke="#602F1B" d="M298.9,166.671c0,0-4.753-3.767-4.556-2.574"/>
<path fill="none" stroke="#602F1B" d="M309.777,170.405c0,0,4.292-1.461,3.852-0.153"/>
<path fill="none" stroke="#602F1B" d="M300.89,167.829c0,0-3.982-4.567-3.896-2.875"/>
<path fill="none" stroke="#602F1B" d="M303.354,168.724c0,0-4.163-4.795-4.073-3.016"/>
<path fill="none" stroke="#602F1B" d="M304.857,169.035c0,0-0.633-3.406-0.764-1.822"/>
<path fill="none" stroke="#602F1B" d="M308.012,170.049c0,0-1.13-3.536-1.229-1.956"/>
<path fill="#D8BE98" d="M288.849,164.816c0,0-2.861-14.627-17.813-6.389C266.136,161.126,288.849,164.816,288.849,164.816z"/>
<path fill="none" stroke="#602F1B" d="M288.411,164.349c0,0,5.297-0.502,4.824,0.474"/>
<path fill="none" stroke="#602F1B" d="M285.568,163.747c0,0,4.116-0.887,3.722,0.115"/>
<path fill="none" stroke="#602F1B" d="M271.81,159.327c0,0-4.749-3.768-4.556-2.574"/>
<path fill="none" stroke="#602F1B" d="M282.687,163.062c0,0,4.293-1.461,3.853-0.153"/>
<path fill="none" stroke="#602F1B" d="M273.802,160.485c0,0-3.984-4.567-3.897-2.875"/>
<path fill="none" stroke="#602F1B" d="M276.263,161.38c0,0-4.161-4.795-4.072-3.017"/>
<path fill="none" stroke="#602F1B" d="M277.768,161.691c0,0-0.63-3.407-0.765-1.823"/>
<path fill="none" stroke="#602F1B" d="M280.922,162.706c0,0-1.13-3.536-1.228-1.957"/>
<rect x="254.949" y="161.75" transform="matrix(0.9718 0.2359 -0.2359 0.9718 47.5371 -58.9742)" fill="none" stroke="#939393" stroke-width="4" width="30.684" height="14.952"/>
<rect x="295.542" y="171.656" transform="matrix(0.9718 0.2358 -0.2358 0.9718 51.0113 -68.2609)" fill="none" stroke="#939393" stroke-width="4" width="30.686" height="14.953"/>
<line fill="none" stroke="#939393" stroke-width="4" x1="297.738" y1="168.249" x2="286.952" y2="165.631"/>
<line fill="none" stroke="#939393" stroke-width="4" x1="327.56" y1="175.486" x2="376.288" y2="179.922"/>
<path fill="#FFF4E3" d="M292.259,171.87c0,0-30.664,25.216-16.658,29.549s12.742,2.667,12.742,2.667s3.916,0.315,2.489-8.667"/>
<path fill="#491906" d="M352.354,183.051l1.586-16.965l0.892-5.352l-2.892-1.648l-6,4c0,0-9-28-36-24s-6-22-34-18l12.438-11.008
	l-2.719-5.992c0,0,43.281-28,59.281-25s0-6,0-6l40,24l-10-14c0,0,35.443,17.776,22,63c1.492,13.711-13.771,45.915,8,0
	c0,0,9,15.674-8,26.837s-3,5-3,5s-11,25.163-25,40.163s31-66-11-37"/>
<path fill="#FFFFFF" d="M297.637,218.441c0,0,3.486,7.031-21.649-3s2.077,18.062,2.077,18.062S291.939,234.701,297.637,218.441z"/>
<path fill="#FFFFFF" d="M280.064,233.502c0,0,14.875,2.198,20.572-14.062c0,0,0,0-21.649-3"/>
<circle fill="#FCE2B4" cx="233.14" cy="280.239" r="16.2"/>
<path fill="#FFFFFF" d="M343.936,238.781c0,0-2.834,3.265,2.522,15.157c5.357,11.891-62.475,18.223-63.733,4.572
	c-1.258-13.652,11.719-13.409,11.719-13.409S339.607,251.792,343.936,238.781z"/>
<path fill="#FFFFFF" d="M277.987,260.753c0,0,9.857-12.626-2.762-17.646s-7.554-6.326-7.554-6.326S259.035,251.42,277.987,260.753z"
	/>
<path fill="#FFFFFF" d="M297.861,255.151c0,0,19.979,30.435,3.028,33.435s-43.942-14.5-31.696-30.5S297.861,255.151,297.861,255.151
	z"/>
<path fill="#F4D851" d="M275.45,246.754c0,0,13.946,3.662,16.954,1.712s-4.102,12.77-4.102,12.77h-1.543l5.098,48.721l-11.485,7.109
	l-4.375-6.29l4.102-49.54h-2.188L275.45,246.754z"/>
<path fill="#494949" d="M343.491,245.106l0.75,2.313c0,0-12.982,18.341-35.976,8.671c-11.066-4.654-32.306,17.573-35.644,48.045
	c-3.597,32.841-3.824,71.772-3.093,85.951c1.41,27.334,123.409,52,114.743,0S343.491,245.106,343.491,245.106z"/>
<path fill="#494949" d="M269.193,248.767c0,0,7.817,5.319,11.115,40.653c3.298,35.333,13.668,123.332-57.184,106.666
	c-4.853-34.666,43.013-154.979,43.013-154.979L269.193,248.767z"/>
<path fill="#666666" d="M348.001,271.995c0,0-41.079,115.954-80.554,93.513c-39.474-22.443-44.792-71.126-44.792-71.126
	l30.735-7.396c0,0,19.446,53.519,26.862,44.351s23.349-61.189,23.349-61.189S332.974,243.769,348.001,271.995z"/>
</svg>
