<?xml version="1.0" encoding="utf-8"?>
<!-- Generator: Adobe Illustrator 15.0.0, SVG Export Plug-In . SVG Version: 6.00 Build 0)  -->
<!DOCTYPE svg PUBLIC "-//W3C//DTD SVG 1.1//EN" "http://www.w3.org/Graphics/SVG/1.1/DTD/svg11.dtd">
<svg version="1.1" id="Layer_1" xmlns="http://www.w3.org/2000/svg" xmlns:xlink="http://www.w3.org/1999/xlink" x="0px" y="0px"
	 width="46.343px" height="372.421px" viewBox="0 0 46.343 372.421" enable-background="new 0 0 46.343 372.421"
	 xml:space="preserve">
<g>
	<path fill="#4D4D4F" d="M22.895,5.014c-0.076,4.867,0.59,11.942,2.875,15.773c-0.443,2.728-1.918,7.519-1.918,10.097
		c0,2.582-0.221,2.875-1.18,4.497c-0.957,1.622-1.399,3.095-1.769,2.948c-0.367-0.147-2.063-3.685-4.274-8.255
		c-2.212-4.57-3.391-8.622-4.497-8.255c-1.104,0.37-0.367,2.138,2.212,6.56c2.579,4.423,5.383,11.276,5.823,12.235
		c0.442,0.959,0,2.875,2.581,11.203c1.546,5.674,2.505,8.252,1.104,7.516c-1.399-0.737-6.411-6.853-7.517-5.307
		c-0.516,0.886,3.242,3.611,6.413,6.413c1.915,1.769,3.241,5.013,4.494,9.583c1.253,4.568,3.538,9.581,3.465,12.309
		c0.569,0.532,0.843,1.253,0.979,1.857c-1.301,2.437-2.92,6.016-3.115,9.859c-0.191,1.658-2.196,5.289-4.119,8.635
		c0.038-2.781-1.491-6.894-2.435-9.156c3.723-6.19,1.369-7.589,0.607-6.21c-0.787,1.425-1.523,0.835-0.736-1.128
		c0.784-1.966,1.326-5.259,0.293-5.896c-1.029-0.64-1.964,2.161-2.308,2.014c-0.344-0.149-0.146-1.229-0.099-4.866
		c0.027-1.997-1.007-3.629-1.966-3.879c-0.787-0.208-1.485,0.825-1.817,0.736c-0.352-0.096-0.322-1.87-0.934-3.49
		c-0.67-1.766-2.017-3.366-3.146-2.801c-2.161,1.083,1.425,5.848,0.934,6.24c-0.491,0.395-2.211-0.392-2.556,1.18
		c-0.587,1.867,4.57,5.995,4.079,6.584c-0.491,0.59-3.193-0.835-3.193,1.228c0.048,2.508,6.438,4.226,6.584,5.013
		c0.147,0.787-1.819,0.293-1.67,1.867c0.182,1.762,3.193,3.141,4.704,3.725c3.039,6.329,2.432,10.252,1.964,11.768
		c-0.399,0.696-0.767,1.344-1.067,1.9c-1.964,3.637-4.913,7.865-7.762,17.299c-0.395,0.587-1.377-1.475-4.816-14.447
		C5.671,97.392,4.59,92.87,2.627,91.986c-1.966-0.886-2.46,0.785-1.868,1.473c0.589,0.688,1.868-0.883,3.634,4.226
		c1.771,5.112,5.31,19.165,5.896,20.344c-1.865-1.081-3.571-3.386-6.585-3.834c-2.652-0.392-1.665,1.24-0.096,1.475
		c1.966,0.294,5.403,2.26,7.075,5.798c1.67,3.538,1.572,8.156,2.359,10.613c0.721,2.26,1.678,6.157,1.372,8.301
		c-0.934,0.704-1.683,1.764-2.209,1.06c-0.934-1.252,1.179-5.82-0.22-8.105c-3.168-4.203-3.168,1.891-4.127,1.399
		c-0.959-0.491-2.358-5.97-4.274-5.086c-3.098,1.695,0.883,6.192,0.883,6.192s-1.769,0.147-1.989,1.326
		c-0.516,3.538,4.765,4.937,4.274,5.97c-0.491,1.032-2.799-0.886-2.728,0.959c0.223,2.726,6.367,3.71,6.119,5.233
		c-0.245,1.523-2.285,0.073-2.062,1.03c1,2.315,4.371,4.12,6.506,4.143c0.964,0.838,2.956,3.062,5.064,8.389
		c0.566,1.427,0.294,2.088-0.013,2.396c-0.59-0.744-1.724-1.847-3.449-2.103c-1.85-0.273-3.11,0.663-3.715,1.26
		c-0.921-0.855-2.154-1.438-3.558-1.505c-3.047-0.147-5.211,2.703-4.522,3.146c0,0,0.37,0.316,0.934,0.802
		c-0.921,1.364-4.077,6.359-2.113,8.09c2.035,1.794,6.405-2,7.612-3.424c0.149,0.124,0.278,0.228,0.349,0.281
		c0.787,0.589,2.801-0.934,2.948-3.588c0.061-1.099-0.316-2.161-0.977-3.055c0.271-0.377,1.177-1.323,3.285-0.924
		c2.02,0.38,3.062,2.614,3.429,3.602c0.127,0.445,0.24,0.845,0.307,1.065c0.223,0.737,0.959,2.948,1.475,9.214
		c0.517,6.263,0.44,7.519,1.177,7.737c0.739,0.224,2.065-0.146,1.919-0.737c-0.149-0.588-1.623-3.978-1.106-7.073
		c0.356-2.144,0.919-3.665,1.235-4.414c4.639-0.82,8.568-2.255,8.568-3.548c0-1.326-2.948-0.959-2.139-1.842
		c3.392-0.81,8.402-1.549,8.625-3.095c0.22-1.549-1.77-1.622-2.875-1.475c-1.105,0.146-1.549-1.18,0.81-1.546
		c2.358-0.37,5.896-2.212,5.896-3.907c0-1.696-2.799,0.516-3.241-0.81c-0.443-1.329,4.054-1.032,3.904-2.728
		c-0.146-1.695-1.769-0.293-2.285-1.326c-0.514-1.033,3.538-2.139,1.698-3.538c-1.845-1.402-3.761,4.717-4.94,4.938
		c-1.179,0.22,0-2.652-1.252-2.875c-3.907-0.147-3.538,6.192-4.497,6.633c-0.957,0.443-0.294-3.538-2.652-2.946
		c-2.361,0.587-2.432,7.589-2.432,7.589s-0.959-2.505-2.581-1.989c-1.622,0.516-1.106,3.905-0.957,7.812
		c0.146,3.907-1.032,5.603-1.032,5.603l0.106-0.091c-0.256,0.64-0.496,1.333-0.696,2.08c-0.663-3.315-1.328-6.486-1.402-7.369
		c0.59-0.37,1.476-0.592,1.402-2.139c-0.043-0.883-0.493-1.592-0.87-2.042c0.01-1.265,0.027-3.482,0.058-7.392
		c0.061-7.255,1.956-12.094,2.713-13.741c1.562,0.39,5.608-0.911,5.545-1.442c-0.076-0.59-3.024-1.916-1.402-2.062
		c4.57-0.37,5.97-3.171,6.043-3.834c0.074-0.663-1.842-0.293-2.285-1.106c-0.44-0.81,2.875-1.62,4.497-2.801
		c1.622-1.179,1.326-3.389-0.22-2.948c-1.549,0.443-1.476-0.957,0.883-2.136s2.435-4.424-0.146-3.981
		c-2.579,0.443-2.062,3.318-3.317,3.834c-1.253,0.514,0.075-3.391-2.875-2.138c-2.946,1.252-1.253,5.307-2.652,5.97
		s-0.59-3.318-1.399-2.875c-4.351,1.473-1.991,8.478-2.728,8.698c-0.737,0.22-1.033-1.179-1.989-1.179
		c-0.878,0,0.41,5.846,1.363,7.465c-2.317,3.854-3.071,10.166-3.282,15.457c-0.587-0.197-1.659-5.127-2.315-8.424
		c0.577-1.564,0.744-3.095,0.18-3.591c-1.182-1.03-2.409,2.556-2.728,1.402c-0.188-0.676,0.898-2.525,1.407-4.358
		c0.451-0.764,0.81-1.612,0.585-2.153c-0.494-1.179-2.852-3.637-3.146-10.712c-0.283-6.85,2.66-12.969,7.127-20.485
		c0.824-0.266,2.163-0.708,3.944-1.361c3.083-1.129,7.063-0.526,11.796,4.358c0.754,0.977,1.354,2.553,2.33,2.027
		c0.978-0.526,1.129,1.503,2.404,0.903c1.278-0.602,2.331,1.501,3.156,0.825c0.827-0.676,1.277-4.431-0.152-4.431
		c-1.427,0-2.401,1.729-3.08,1.126c-0.675-0.602-1.126,0.225-2.252-0.301c-1.129-0.523-2.33-2.027-5.636-4.434
		c-3.308-2.404-6.461-2.553-8.49-1.726c-1.172,0.476-2.032,0.549-2.559,0.529c3.913-6.81,5.408-10.958,10.672-13.587
		c3.343-1.377,4.424-1.868,3.834-3.047s-5.995,2.062-7.862,4.421c0,0,0.099-5.109,1.67-8.548c1.574-3.439,2.948-2.85,2.948-4.816
		s0.002-4.127,0.493-5.109c0.218-0.435,0.625-1.06,1.015-1.625c2.217,0.471,4.594,0.534,5.52-1.718
		c0.957-1.842,0.367-3.979,0.367-3.979s1.105-0.885,0.519-4.497c-0.592-3.611-2.361-2.655-4.276-0.736
		c-1.916,1.916-1.476,3.315-1.476,3.315s-3.538,0.886-3.685,2.948c-0.124,1.746,1.172,3.639,1.931,4.271
		c-0.361,0.673-1.161,2.179-1.39,2.708c-0.28,0.653,0.226,1.759-0.402,3.219c-0.255-0.035-0.63,0.045-1.169,0.415
		c-0.812-4.054-2.95-10.833-4.054-15.844c-1.106-5.013-3.538-11.426-3.392-12.089c0.147-0.663,0.147-1.992,0.59-3.907
		c0.165-0.713,0.299-1.323,0.402-1.812c0.854-0.316,2.121-1.453,2.425-2.51c0.39-1.374,4.615-2.85,4.224-4.029
		c-0.393-1.179-1.278-1.376-1.278-1.376s3.343-2.751,3.146-3.93s-1.571,0-1.571-1.376c0-1.377,2.85-3.341,1.571-4.619
		c-1.277-1.278-3.34,1.473-3.439,3.538c-0.099,2.065-1.277-1.081-1.277-2.065c0-0.981-2.652,0.395-2.065,5.504
		c-0.194,1.966-2.062-0.688-2.85,0.787c-0.784,1.473-0.197,3.93-0.392,4.322c-0.197,0.395-1.377-0.096-1.377,1.574
		c0,1.471,1.065,3.242,1.926,3.983c-0.23,1.182-0.597,2.478-1.065,2.009c-0.812-0.81-3.095-8.328-2.139-8.769
		c0.96-0.443,0.443-1.845,1.622-3.611c1.18-1.771,2.359-2.065,2.359-4.866c0-2.799,2.285-12.086,6.708-18.648
		c0.663-1.916-1.918-2.505-3.097,0.076c-1.18,2.579-1.326,4.274-2.283,3.611c-0.959-0.663-2.508-9.657-1.255-16.953
		C25.18-0.882,22.968,0.15,22.895,5.014z M17.734,85.87c-0.959-0.886-2.138-1.476-1.399-1.476c0.737,0,1.326,0.886,1.177,0
		c-0.146-0.883-0.146-1.622-0.957-2.505c-0.812-0.886-3.021-2.432-1.842-2.211c1.179,0.22,1.106,1.179,1.179,0.22
		c0.074-0.957-0.736-2.358,0.074-1.989c0,0,0.957,1.695,1.326,2.505c0.369,0.812,0.959-2.726,1.328-2.062
		c0.367,0.663-0.739,3.391-0.443,4.421c0.294,1.033,0.22,1.549,0.663,1.106c0.441-0.443,1.696-1.179,1.106-0.073
		c-0.59,1.105-1.032,2.801-0.517,3.611c0.517,0.81,1.549,2.802,1.033,2.728C19.946,90.071,18.694,86.753,17.734,85.87z
		 M6.975,140.56c-1.18-0.959-2.508-1.623-1.623-1.623c0.883,0,2.432,1.326,1.989,0.443c-0.443-0.886-2.136-3.687-1.769-3.833
		c0.417-0.165,2.655,2.875,3.538,4.127C9.996,140.929,8.154,141.516,6.975,140.56z M36.752,157.955
		c-0.149-0.443,0.588-2.951,1.104-2.582c0.517,0.37,0,0,0.149,0.663c0.146,0.666,0,0,1.032-0.22c1.03-0.22,2.062-0.22,0.811,0.44
		C38.592,156.922,37.023,158.767,36.752,157.955z M34.98,159.871c0.37-1.622,1.253-1.622,1.253-0.812
		C36.233,159.871,34.847,160.463,34.98,159.871z M27.832,167.462c-0.073-0.663,1.842-2.361,2.285-4.054
		c0.442-1.695,0.59-3.244,1.032-3.244c0.443,0,0.221,0.739,0.367,1.916c0.146,1.182,1.476-1.326,1.695-0.736
		c0.223,0.59-1.18,2.212-1.619,2.875c-0.443,0.663,1.619-0.147,1.842,0.443c0.221,0.589-0.59,0.663-2.358,0.81
		C29.308,165.618,27.951,168.528,27.832,167.462z M25.033,141.42c-0.691-0.592,0.587-2.164,1.473-3.245
		c0.883-1.081,1.769-2.654,2.358-3.34c0.59-0.688,3.341-4.915,3.735-4.522c0.393,0.392-0.296,0.787-0.688,1.67
		c-0.393,0.886,1.278,0.198,0.491,0.688c-0.785,0.491-1.77,1.278-3.832,4.522c-2.064,3.242-0.886,1.572,0.097,1.572
		c0.984,0-0.688,0.785-1.769,1.769C25.817,141.516,25.734,142.022,25.033,141.42z M18.471,153.898
		c0.187,2.001-0.126,3.264-0.382,3.927c-0.853-1.759-1.562-3.333-1.713-3.993c0.658-0.575,1.258-1.465,1.721-2.432
		C18.251,152.16,18.388,153,18.471,153.898z M15.083,151.393c0.44,0.739-1.255,0.663-1.402-0.147
		c-0.147-0.81-0.663-1.399-1.399-2.654c-0.739-1.253-3.614-1.03-3.464-1.62c0.146-0.59,2.282,0.367,1.842-1.033
		c-0.443-1.402-2.139-3.758-1.769-3.834c1.027-0.205,2.579,3.244,3.168,3.907c0.592,0.663,1.255-2.138,1.769-1.546
		c0.517,0.587-0.736,1.989-0.663,3.462C13.238,149.404,14.637,150.657,15.083,151.393z"/>
	<path fill="#4D4D4F" d="M21.606,187.268c0.146,0.589,1.622,3.98,1.105,7.075c-0.356,2.143-0.921,3.666-1.237,4.413
		c-4.638,0.822-8.566,2.255-8.566,3.548c0,1.326,2.948,0.959,2.138,1.842c-3.391,0.811-8.404,1.549-8.624,3.096
		c-0.22,1.548,1.769,1.622,2.875,1.475c1.106-0.146,1.549,1.18-0.812,1.547c-2.359,0.369-5.896,2.211-5.896,3.907
		c0,1.695,2.801-0.517,3.244,0.81c0.443,1.328-4.054,1.032-3.907,2.729c0.147,1.695,1.769,0.296,2.285,1.328
		c0.516,1.03-3.538,2.136-1.695,3.538c1.842,1.399,3.76-4.72,4.939-4.94c1.177-0.22,0,2.655,1.253,2.875
		c3.905,0.146,3.538-6.192,4.494-6.632c0.959-0.443,0.296,3.537,2.655,2.947s2.432-7.592,2.432-7.592s0.959,2.505,2.578,1.989
		c1.622-0.517,1.108-3.905,0.959-7.812c-0.146-3.907,1.033-5.603,1.033-5.603l-0.106,0.091c0.253-0.64,0.496-1.333,0.696-2.079
		c0.662,3.317,1.325,6.485,1.399,7.369c-0.59,0.368-1.474,0.592-1.399,2.138c0.043,0.884,0.49,1.592,0.87,2.042
		c-0.01,1.266-0.028,3.482-0.061,7.392c-0.059,7.256-1.954,12.095-2.711,13.742c-1.563-0.391-5.61,0.91-5.544,1.442
		c0.073,0.589,3.021,1.915,1.402,2.062c-4.57,0.369-5.972,3.171-6.046,3.833c-0.073,0.663,1.842,0.297,2.285,1.106
		s-2.875,1.622-4.497,2.802c-1.62,1.179-1.326,3.391,0.223,2.947c1.546-0.442,1.475,0.957-0.886,2.137
		c-2.359,1.179-2.432,4.423,0.146,3.98c2.582-0.443,2.065-3.317,3.318-3.832c1.252-0.516-0.074,3.389,2.875,2.137
		c2.948-1.253,1.253-5.307,2.655-5.97c1.399-0.663,0.59,3.317,1.399,2.874c4.35-1.473,1.989-8.478,2.728-8.697
		c0.736-0.221,1.03,1.179,1.989,1.179c0.878,0-0.41-5.846-1.364-7.465c2.318-3.854,3.072-10.166,3.282-15.457
		c0.587,0.197,1.657,5.13,2.315,8.427c-0.577,1.562-0.744,3.093-0.18,3.589c1.18,1.032,2.407-2.557,2.729-1.402
		c0.187,0.676-0.898,2.528-1.41,4.36c-0.447,0.765-0.807,1.609-0.582,2.151c0.494,1.179,2.85,3.636,3.146,10.712
		c0.286,6.851-2.657,12.97-7.129,20.489c-0.824,0.263-2.161,0.708-3.944,1.358c-3.08,1.129-7.063,0.526-11.796-4.358
		c-0.751-0.975-1.354-2.554-2.328-2.027c-0.977,0.526-1.128-1.503-2.404-0.903c-1.278,0.604-2.331-1.501-3.156-0.827
		c-0.828,0.678-1.278,4.434,0.149,4.434s2.404-1.729,3.08-1.126c0.678,0.602,1.129-0.226,2.255,0.301
		c1.126,0.523,2.328,2.03,5.636,4.433c3.305,2.406,6.46,2.556,8.488,1.729c1.174-0.479,2.034-0.55,2.561-0.529
		c-3.909,6.81-5.41,10.955-10.674,13.587c-3.34,1.377-4.421,1.87-3.832,3.047c0.59,1.18,5.993-2.062,7.863-4.421
		c0,0-0.099,5.109-1.673,8.548c-1.571,3.439-2.946,2.85-2.946,4.816c0,1.966-0.002,4.127-0.493,5.109
		c-0.218,0.436-0.625,1.061-1.015,1.624c-2.217-0.471-4.593-0.533-5.52,1.719c-0.959,1.843-0.37,3.98-0.37,3.98
		s-1.106,0.884-0.514,4.497c0.587,3.608,2.356,2.652,4.274,0.734c1.916-1.916,1.473-3.315,1.473-3.315s3.538-0.886,3.685-2.948
		c0.126-1.749-1.169-3.639-1.928-4.271c0.359-0.674,1.162-2.179,1.387-2.708c0.284-0.653-0.225-1.759,0.402-3.219
		c0.258,0.035,0.633-0.046,1.172-0.415c0.812,4.054,2.948,10.833,4.054,15.844c1.105,5.014,3.537,11.426,3.391,12.089
		c-0.149,0.663-0.149,1.992-0.59,3.907c-0.164,0.714-0.298,1.326-0.402,1.814c-0.853,0.314-2.12,1.453-2.421,2.508
		c-0.395,1.377-4.621,2.85-4.226,4.031c0.39,1.18,1.275,1.377,1.275,1.377s-3.34,2.751-3.143,3.93c0.195,1.18,1.571,0,1.571,1.377
		c0,1.374-2.852,3.341-1.571,4.618c1.278,1.278,3.34-1.475,3.439-3.537c0.099-2.065,1.278,1.08,1.278,2.062
		c0,0.984,2.652-0.393,2.063-5.505c0.197-1.966,2.064,0.688,2.852-0.784c0.784-1.476,0.195-3.93,0.393-4.325
		c0.194-0.395,1.374,0.1,1.374-1.571c0-1.473-1.065-3.247-1.923-3.983c0.228-1.182,0.597-2.479,1.064-2.012
		c0.811,0.811,3.096,8.328,2.137,8.771c-0.957,0.442-0.443,1.842-1.62,3.611c-1.179,1.769-2.361,2.064-2.361,4.863
		c0,2.802-2.282,12.089-6.706,18.648c-0.663,1.916,1.916,2.506,3.095-0.073c1.179-2.581,1.329-4.274,2.285-3.611
		c0.96,0.663,2.509,9.657,1.253,16.953c0.37,1.546,2.581,0.514,2.655-4.351c0.073-4.863-0.59-11.939-2.875-15.773
		c0.442-2.726,1.915-7.516,1.915-10.097c0-2.579,0.223-2.875,1.18-4.495c0.959-1.622,1.399-3.097,1.769-2.948
		c0.37,0.147,2.065,3.685,4.274,8.253c2.212,4.57,3.392,8.627,4.497,8.258c1.105-0.37,0.369-2.139-2.212-6.56
		c-2.578-4.424-5.38-11.279-5.823-12.236c-0.439-0.959,0-2.874-2.578-11.205c-1.546-5.674-2.506-8.253-1.106-7.516
		c1.402,0.736,6.413,6.855,7.519,5.307c0.517-0.884-3.241-3.611-6.412-6.413c-1.916-1.769-3.242-5.013-4.497-9.581
		c-1.252-4.57-3.538-9.583-3.462-12.309c-0.569-0.534-0.843-1.255-0.977-1.857c1.298-2.439,2.917-6.019,3.112-9.862
		c0.192-1.657,2.196-5.291,4.122-8.637c-0.04,2.781,1.488,6.896,2.433,9.158c-3.723,6.189-1.369,7.587-0.607,6.21
		c0.784-1.425,1.521-0.835,0.736,1.132c-0.787,1.963-1.329,5.256-0.296,5.894c1.032,0.64,1.966-2.161,2.311-2.015
		c0.344,0.146,0.146,1.23,0.099,4.866c-0.028,1.997,1.007,3.632,1.964,3.882c0.787,0.205,1.487-0.824,1.819-0.736
		c0.352,0.094,0.318,1.868,0.934,3.487c0.668,1.77,2.017,3.366,3.143,2.802c2.164-1.081-1.424-5.849-0.931-6.24
		c0.491-0.396,2.209,0.392,2.554-1.18c0.589-1.867-4.57-5.995-4.08-6.585c0.491-0.589,3.196,0.835,3.196-1.227
		c-0.051-2.509-6.438-4.227-6.585-5.014c-0.148-0.787,1.817-0.296,1.671-1.867c-0.183-1.765-3.194-3.141-4.705-3.726
		c-3.047-6.344-2.432-10.267-1.961-11.775c0.399-0.693,0.765-1.341,1.065-1.895c1.964-3.637,4.912-7.861,7.762-17.296
		c0.392-0.589,1.376,1.473,4.815,14.446c3.439,12.975,4.522,17.494,6.486,18.377c1.966,0.886,2.457-0.784,1.867-1.473
		s-1.867,0.886-3.637-4.227c-1.769-5.111-5.307-19.165-5.896-20.345c1.867,1.081,3.57,3.386,6.584,3.834
		c2.655,0.393,1.665-1.24,0.099-1.476c-1.966-0.296-5.405-2.26-7.075-5.797c-1.67-3.538-1.571-8.156-2.358-10.614
		c-0.724-2.26-1.678-6.156-1.372-8.3c0.934-0.701,1.683-1.764,2.207-1.061c0.934,1.254-1.18,5.823,0.223,8.105
		c3.168,4.203,3.168-1.891,4.127-1.398c0.957,0.49,2.356,5.969,4.274,5.086c3.095-1.696-0.886-6.192-0.886-6.192
		s1.77-0.147,1.992-1.326c0.514-3.538-4.768-4.938-4.277-5.97c0.494-1.033,2.802,0.886,2.729-0.959
		c-0.223-2.726-6.365-3.71-6.117-5.233c0.246-1.523,2.285-0.074,2.062-1.03c-0.999-2.315-4.372-4.12-6.506-4.143
		c-0.967-0.838-2.956-3.062-5.066-8.389c-0.564-1.427-0.291-2.088,0.016-2.396c0.589,0.743,1.723,1.845,3.449,2.103
		c1.85,0.273,3.109-0.663,3.715-1.261c0.921,0.855,2.153,1.438,3.558,1.506c3.047,0.147,5.208-2.702,4.52-3.146
		c0,0-0.366-0.316-0.931-0.8c0.924-1.366,4.076-6.361,2.11-8.093c-2.034-1.793-6.405,1.997-7.609,3.425
		c-0.149-0.125-0.278-0.226-0.35-0.281c-0.787-0.59-2.801,0.934-2.948,3.588c-0.061,1.099,0.316,2.161,0.977,3.055
		c-0.272,0.377-1.177,1.323-3.287,0.924c-2.024-0.383-3.066-2.63-3.432-3.613c-0.124-0.438-0.237-0.833-0.304-1.054
		c-0.22-0.736-0.956-2.948-1.473-9.213c-0.516-6.264-0.442-7.52-1.179-7.739C22.786,186.308,21.46,186.678,21.606,187.268z
		 M9.591,214.466c0.149,0.44-0.589,2.948-1.105,2.578c-0.514-0.369,0,0-0.147-0.662c-0.147-0.663,0,0-1.03,0.22
		c-1.033,0.223-2.065,0.223-0.812-0.44S9.32,213.65,9.591,214.466z M11.36,212.548c-0.367,1.622-1.252,1.622-1.252,0.812
		C10.107,212.548,11.497,211.955,11.36,212.548z M18.509,204.956c0.076,0.662-1.842,2.36-2.285,4.054
		c-0.44,1.695-0.587,3.245-1.03,3.245s-0.223-0.737-0.37-1.917c-0.146-1.182-1.473,1.326-1.695,0.736
		c-0.22-0.589,1.179-2.211,1.622-2.874s-1.622,0.146-1.842-0.443c-0.223-0.59,0.59-0.663,2.358-0.81
		C17.036,206.801,18.39,203.891,18.509,204.956z M21.311,230.998c0.688,0.593-0.59,2.164-1.473,3.244
		c-0.886,1.081-1.769,2.655-2.359,3.341c-0.59,0.688-3.343,4.914-3.735,4.522c-0.392-0.393,0.296-0.787,0.686-1.669
		c0.395-0.888-1.275-0.199-0.488-0.689c0.787-0.491,1.769-1.278,3.831-4.522c2.065-3.242,0.886-1.571-0.099-1.571
		c-0.982,0,0.688-0.785,1.769-1.77C20.526,230.902,20.606,230.397,21.311,230.998z M28.606,286.552
		c0.959,0.883,2.138,1.473,1.401,1.473s-1.326-0.886-1.179,0c0.146,0.884,0.146,1.622,0.959,2.506
		c0.81,0.886,3.021,2.432,1.842,2.212c-1.179-0.221-1.105-1.18-1.179-0.221c-0.073,0.957,0.736,2.358-0.073,1.989
		c0,0-0.959-1.695-1.326-2.506c-0.37-0.812-0.959,2.726-1.329,2.062c-0.369-0.662,0.736-3.391,0.443-4.421
		c-0.294-1.032-0.223-1.549-0.663-1.105c-0.443,0.442-1.695,1.179-1.106,0.073c0.59-1.105,1.033-2.802,0.517-3.611
		s-1.549-2.801-1.032-2.728C26.396,282.349,27.649,285.666,28.606,286.552z M39.369,231.858c1.179,0.959,2.505,1.622,1.622,1.622
		c-0.886,0-2.435-1.326-1.989-0.441c0.44,0.885,2.136,3.686,1.769,3.834c-0.417,0.165-2.654-2.876-3.537-4.129
		C36.348,231.489,38.189,230.902,39.369,231.858z M32.663,221.172c0.146,0.81,0.663,1.402,1.399,2.654
		c0.736,1.253,3.611,1.033,3.464,1.62c-0.146,0.59-2.285-0.367-1.842,1.032c0.442,1.402,2.136,3.758,1.769,3.834
		c-1.027,0.205-2.581-3.244-3.171-3.907c-0.587-0.663-1.253,2.139-1.769,1.546c-0.517-0.587,0.736-1.989,0.663-3.462
		c-0.073-1.476-1.473-2.728-1.916-3.464C30.82,220.289,32.514,220.362,32.663,221.172z M29.968,218.586
		c-0.658,0.574-1.258,1.465-1.721,2.432c-0.154-0.76-0.291-1.6-0.375-2.498c-0.188-2.001,0.127-3.265,0.383-3.928
		C29.107,216.351,29.813,217.926,29.968,218.586z"/>
</g>
</svg>
